<svg xmlns="http://www.w3.org/2000/svg" viewBox="0 0 1200 630" width="1200" height="630" font-family="Archivo, Arial, sans-serif">
  <rect width="1200" height="630" fill="#fbfaf7"/>
  <g stroke="rgba(21,35,59,0.07)"><line x1="0" y1="28" x2="1200" y2="28"/><line x1="0" y1="56" x2="1200" y2="56"/><line x1="0" y1="84" x2="1200" y2="84"/><line x1="0" y1="112" x2="1200" y2="112"/><line x1="0" y1="140" x2="1200" y2="140"/></g>
  <text x="56" y="92" font-size="22" font-family="'Space Mono', monospace" fill="#e4572e" letter-spacing="3">DIVARIO ITALIA · DATI 2026</text>
  <text x="54" y="170" font-size="60" font-weight="800" fill="#15233b">L'Italia che invecchia</text>
  <text x="56" y="208" font-size="22" font-family="'Space Mono', monospace" fill="#6b7785">Indice di vecchiaia · anziani (65+) ogni 100 giovani (0-14)</text>
  <g>
    <text x="56" y="286" font-size="22" fill="#15233b" font-family="Archivo, Arial, sans-serif">Sardegna</text>
    <rect x="470" y="266" width="560" height="26" rx="2" fill="#e4572e"/>
    <text x="1042" y="286" font-size="20" fill="#e4572e" text-anchor="start" font-family="'Space Mono', monospace">299,7</text>
    <text x="56" y="344" font-size="22" fill="#15233b" font-family="Archivo, Arial, sans-serif">Liguria</text>
    <rect x="470" y="324" width="542" height="26" rx="2" fill="#15233b"/>
    <text x="1024" y="344" font-size="20" fill="#15233b" text-anchor="start" font-family="'Space Mono', monospace">290,2</text>
    <text x="56" y="402" font-size="22" fill="#15233b" font-family="Archivo, Arial, sans-serif">Molise</text>
    <rect x="470" y="382" width="509" height="26" rx="2" fill="#15233b"/>
    <text x="991" y="402" font-size="20" fill="#15233b" text-anchor="start" font-family="'Space Mono', monospace">272,4</text>
    <text x="56" y="460" font-size="22" fill="#15233b" font-family="Archivo, Arial, sans-serif">Campania</text>
    <rect x="470" y="440" width="315" height="26" rx="2" fill="#15233b"/>
    <text x="797" y="460" font-size="20" fill="#15233b" text-anchor="start" font-family="'Space Mono', monospace">168,8</text>
    <text x="56" y="518" font-size="22" fill="#15233b" font-family="Archivo, Arial, sans-serif">Trentino-Alto Adige</text>
    <rect x="470" y="498" width="315" height="26" rx="2" fill="#15233b"/>
    <text x="797" y="518" font-size="20" fill="#15233b" text-anchor="start" font-family="'Space Mono', monospace">168,5</text>
  </g>
  <line x1="56" y1="560" x2="1144" y2="560" stroke="rgba(21,35,59,0.16)"/>
  <text x="56" y="592" font-size="18" font-family="'Space Mono', monospace" fill="#6b7785">Fonte: Istat — Indicatori demografici</text>
  <text x="1144" y="592" font-size="18" font-weight="700" fill="#15233b" text-anchor="end">divarioitalia.it</text>
</svg>
