<svg class="fig" viewBox="0 0 680 360" role="img" aria-labelledby="fig-italiano-2018-2025-t fig-italiano-2018-2025-d" xmlns="http://www.w3.org/2000/svg">
<title id="fig-italiano-2018-2025-t">Il Nord peggiora più in fretta del Sud</title>
<desc id="fig-italiano-2018-2025-d">Centro-Nord: da 29,0 nel 2018 a 37,6 nel 2025; Mezzogiorno: da 40,2 nel 2018 a 45,2 nel 2025; Lombardia: da 27,2 nel 2018 a 36,6 nel 2025</desc>
<text class="fig__titolo" x="0" y="20">Il Nord peggiora più in fretta del Sud</text>
<text class="fig__sotto" x="0" y="40">Competenza alfabetica non adeguata (studenti classi III scuola secondaria primo grado), 2018-2025. Valori percentuali.</text>
<line class="fig__griglia" x1="48" y1="290.0" x2="530" y2="290.0"/>
<text class="fig__asse" x="42" y="294.0" text-anchor="end">26</text>
<line class="fig__griglia" x1="48" y1="232.5" x2="530" y2="232.5"/>
<text class="fig__asse" x="42" y="236.5" text-anchor="end">31</text>
<line class="fig__griglia" x1="48" y1="175.0" x2="530" y2="175.0"/>
<text class="fig__asse" x="42" y="179.0" text-anchor="end">36</text>
<line class="fig__griglia" x1="48" y1="117.5" x2="530" y2="117.5"/>
<text class="fig__asse" x="42" y="121.5" text-anchor="end">41</text>
<line class="fig__griglia" x1="48" y1="60.0" x2="530" y2="60.0"/>
<text class="fig__asse" x="42" y="64.0" text-anchor="end">47</text>
<text class="fig__asse" x="48.0" y="308" text-anchor="middle">2018</text>
<text class="fig__asse" x="116.9" y="308" text-anchor="middle">2019</text>
<text class="fig__asse" x="254.6" y="308" text-anchor="middle">2021</text>
<text class="fig__asse" x="323.4" y="308" text-anchor="middle">2022</text>
<text class="fig__asse" x="392.3" y="308" text-anchor="middle">2023</text>
<text class="fig__asse" x="461.1" y="308" text-anchor="middle">2024</text>
<text class="fig__asse" x="530.0" y="308" text-anchor="middle">2025</text>
<polyline class="fig__linea fig__linea--cn" points="48.0,254.0 116.9,238.7 254.6,201.1 323.4,204.1 392.3,195.9 461.1,175.8 530.0,159.4"/>
<circle class="fig__punto fig__punto--cn" cx="530.0" cy="159.4" r="3.5"/>
<polyline class="fig__linea fig__linea--mz" points="48.0,130.5 116.9,126.2 254.6,87.0 323.4,88.0 392.3,101.0 461.1,85.9 530.0,75.9"/>
<circle class="fig__punto fig__punto--mz" cx="530.0" cy="75.9" r="3.5"/>
<polyline class="fig__linea fig__linea--on" points="48.0,274.1 116.9,253.2 254.6,203.5 323.4,211.2 392.3,206.8 461.1,193.6 530.0,170.4"/>
<circle class="fig__punto fig__punto--on" cx="530.0" cy="170.4" r="3.5"/>
<text class="fig__etichetta fig__etichetta--mz" x="538.0" y="79.9">Mezzogiorno 45,16</text>
<text class="fig__etichetta fig__etichetta--cn" x="538.0" y="163.4">Centro-Nord 37,59</text>
<text class="fig__etichetta fig__etichetta--on" x="538.0" y="177.4">Lombardia 36,6</text>
<text class="fig__nota" x="0" y="334">Centro-Nord e Mezzogiorno: medie semplici dei territori, non pesate per popolazione.</text>
<text class="fig__fonte" x="0" y="354">Fonte: Invalsi, Benessere equo e sostenibile. Elaborazione Divario Italia.</text>
</svg>
