<svg class="fig" viewBox="0 0 680 360" role="img" aria-labelledby="fig-posti-letto-2009-2023-t fig-posti-letto-2009-2023-d" xmlns="http://www.w3.org/2000/svg">
<title id="fig-posti-letto-2009-2023-t">Il Centro è più vicino al Sud che al Nord</title>
<desc id="fig-posti-letto-2009-2023-d">Nord: da 102,3 nel 2009 a 100,6 nel 2023; Centro: da 54,8 nel 2009 a 60,0 nel 2023; Mezzogiorno: da 39,3 nel 2009 a 38,8 nel 2023; Italia: da 71,1 nel 2009 a 72,2 nel 2023</desc>
<text class="fig__titolo" x="0" y="20">Il Centro è più vicino al Sud che al Nord</text>
<text class="fig__sotto" x="0" y="40">Posti letto nei presidi residenziali socio-assistenziali e socio-sanitari, 2009-2023. Per 10.000 abitanti.</text>
<line class="fig__griglia" x1="48" y1="290.0" x2="530" y2="290.0"/>
<text class="fig__asse" x="42" y="294.0" text-anchor="end">25</text>
<line class="fig__griglia" x1="48" y1="232.5" x2="530" y2="232.5"/>
<text class="fig__asse" x="42" y="236.5" text-anchor="end">46</text>
<line class="fig__griglia" x1="48" y1="175.0" x2="530" y2="175.0"/>
<text class="fig__asse" x="42" y="179.0" text-anchor="end">66</text>
<line class="fig__griglia" x1="48" y1="117.5" x2="530" y2="117.5"/>
<text class="fig__asse" x="42" y="121.5" text-anchor="end">87</text>
<line class="fig__griglia" x1="48" y1="60.0" x2="530" y2="60.0"/>
<text class="fig__asse" x="42" y="64.0" text-anchor="end">108</text>
<text class="fig__asse" x="48.0" y="308" text-anchor="middle">2009</text>
<text class="fig__asse" x="116.9" y="308" text-anchor="middle">2011</text>
<text class="fig__asse" x="185.7" y="308" text-anchor="middle">2013</text>
<text class="fig__asse" x="254.6" y="308" text-anchor="middle">2015</text>
<text class="fig__asse" x="323.4" y="308" text-anchor="middle">2017</text>
<text class="fig__asse" x="392.3" y="308" text-anchor="middle">2019</text>
<text class="fig__asse" x="461.1" y="308" text-anchor="middle">2021</text>
<text class="fig__asse" x="530.0" y="308" text-anchor="middle">2023</text>
<polyline class="fig__linea fig__linea--nord" points="48.0,75.9 82.4,81.4 116.9,96.8 151.3,100.4 185.7,106.0 220.1,106.5 254.6,107.1 289.0,93.8 323.4,91.6 357.9,85.0 392.3,83.6 426.7,89.4 461.1,86.4 495.6,87.7 530.0,80.6"/>
<circle class="fig__punto fig__punto--nord" cx="530.0" cy="80.6" r="3.5"/>
<polyline class="fig__linea fig__linea--centro" points="48.0,207.0 82.4,211.7 116.9,216.1 151.3,230.0 185.7,225.5 220.1,209.2 254.6,212.3 289.0,202.6 323.4,209.8 357.9,206.5 392.3,204.3 426.7,203.4 461.1,202.3 495.6,203.4 530.0,192.7"/>
<circle class="fig__punto fig__punto--centro" cx="530.0" cy="192.7" r="3.5"/>
<polyline class="fig__linea fig__linea--mz" points="48.0,249.8 82.4,249.0 116.9,265.0 151.3,274.1 185.7,262.8 220.1,251.8 254.6,258.1 289.0,252.9 323.4,252.0 357.9,251.8 392.3,249.8 426.7,250.4 461.1,250.1 495.6,256.2 530.0,251.2"/>
<circle class="fig__punto fig__punto--mz" cx="530.0" cy="251.2" r="3.5"/>
<polyline class="fig__linea fig__linea--it" points="48.0,162.0 82.4,164.8 116.9,178.6 151.3,185.8 185.7,183.6 220.1,176.9 254.6,180.5 289.0,170.0 323.4,170.0 357.9,166.2 392.3,163.7 426.7,166.2 461.1,164.8 495.6,167.5 530.0,159.0"/>
<circle class="fig__punto fig__punto--it" cx="530.0" cy="159.0" r="3.5"/>
<text class="fig__etichetta fig__etichetta--nord" x="538.0" y="84.6">Nord 100,6</text>
<text class="fig__etichetta fig__etichetta--it" x="538.0" y="163.0">Italia 72,2</text>
<text class="fig__etichetta fig__etichetta--centro" x="538.0" y="196.7">Centro 60,0</text>
<text class="fig__etichetta fig__etichetta--mz" x="538.0" y="255.2">Mezzogiorno 38,8</text>
<text class="fig__nota" x="0" y="334">Italia, Nord, Centro e Mezzogiorno: valori calcolati dall'Istat.</text>
<text class="fig__fonte" x="0" y="354">Fonte: Istat, Benessere equo e sostenibile. Elaborazione Divario Italia.</text>
</svg>
