<svg class="fig" viewBox="0 0 680 360" role="img" aria-labelledby="fig-italiano-2018-2025-t fig-italiano-2018-2025-d" xmlns="http://www.w3.org/2000/svg">
<title id="fig-italiano-2018-2025-t">Il Nord peggiora più in fretta del Sud</title>
<desc id="fig-italiano-2018-2025-d">Nord: da 28,7 nel 2018 a 37,9 nel 2025; Centro: da 30,6 nel 2018 a 38,4 nel 2025; Mezzogiorno: da 43,1 nel 2018 a 47,7 nel 2025; Italia: da 34,4 nel 2018 a 41,4 nel 2025; Liguria: da 31,9 nel 2018 a 44,0 nel 2025</desc>
<text class="fig__title" x="0" y="20">Il Nord peggiora più in fretta del Sud</text>
<text class="fig__subtitle" x="0" y="40">Competenza alfabetica non adeguata, 2018-2025. Valori percentuali.</text>
<line class="fig__grid" x1="48" y1="290.0" x2="530" y2="290.0"/>
<text class="fig__axis" x="42" y="294.0" text-anchor="end">27</text>
<line class="fig__grid" x1="48" y1="232.5" x2="530" y2="232.5"/>
<text class="fig__axis" x="42" y="236.5" text-anchor="end">33</text>
<line class="fig__grid" x1="48" y1="175.0" x2="530" y2="175.0"/>
<text class="fig__axis" x="42" y="179.0" text-anchor="end">38</text>
<line class="fig__grid" x1="48" y1="117.5" x2="530" y2="117.5"/>
<text class="fig__axis" x="42" y="121.5" text-anchor="end">44</text>
<line class="fig__grid" x1="48" y1="60.0" x2="530" y2="60.0"/>
<text class="fig__axis" x="42" y="64.0" text-anchor="end">49</text>
<text class="fig__axis" x="48.0" y="308" text-anchor="middle">2018</text>
<text class="fig__axis" x="116.9" y="308" text-anchor="middle">2019</text>
<text class="fig__axis" x="254.6" y="308" text-anchor="middle">2021</text>
<text class="fig__axis" x="323.4" y="308" text-anchor="middle">2022</text>
<text class="fig__axis" x="392.3" y="308" text-anchor="middle">2023</text>
<text class="fig__axis" x="461.1" y="308" text-anchor="middle">2024</text>
<text class="fig__axis" x="530.0" y="308" text-anchor="middle">2025</text>
<polyline class="fig__line fig__line--north" points="48.0,274.1 116.9,258.5 254.6,218.8 323.4,219.9 392.3,213.6 461.1,198.0 530.0,178.1"/>
<circle class="fig__dot fig__dot--north" cx="530.0" cy="178.1" r="3.5"/>
<polyline class="fig__line fig__line--centre" points="48.0,254.3 116.9,243.9 254.6,209.4 323.4,206.3 392.3,203.2 461.1,188.6 530.0,172.9"/>
<circle class="fig__dot fig__dot--centre" cx="530.0" cy="172.9" r="3.5"/>
<polyline class="fig__line fig__line--south" points="48.0,123.9 116.9,121.8 254.6,81.1 323.4,86.3 392.3,97.8 461.1,86.3 530.0,75.9"/>
<circle class="fig__dot fig__dot--south" cx="530.0" cy="75.9" r="3.5"/>
<polyline class="fig__line fig__line--italy" points="48.0,214.7 116.9,206.3 254.6,171.9 323.4,170.8 392.3,171.9 461.1,157.3 530.0,141.6"/>
<circle class="fig__dot fig__dot--italy" cx="530.0" cy="141.6" r="3.5"/>
<polyline class="fig__line fig__line--on" points="48.0,240.7 116.9,235.5 254.6,182.3 323.4,170.8 392.3,156.2 461.1,140.6 530.0,114.5"/>
<circle class="fig__dot fig__dot--on" cx="530.0" cy="114.5" r="3.5"/>
<text class="fig__label fig__label--south" x="538.0" y="79.9">Mezzogiorno 47,7</text>
<text class="fig__label fig__label--on" x="538.0" y="118.5">Liguria 44,0</text>
<text class="fig__label fig__label--italy" x="538.0" y="145.6">Italia 41,4</text>
<text class="fig__label fig__label--centre" x="538.0" y="176.9">Centro 38,4</text>
<text class="fig__label fig__label--north" x="538.0" y="190.9">Nord 37,9</text>
<text class="fig__note" x="0" y="334">Italia, Nord, Centro e Mezzogiorno: valori calcolati dall'Istat.</text>
<text class="fig__source" x="0" y="354">Fonte: Istat, Benessere equo e sostenibile. Elaborazione Divario Italia.</text>
</svg>
