<svg class="fig" viewBox="0 0 680 440" role="img" aria-labelledby="fig-soccorsi-letalita-t fig-soccorsi-letalita-d" xmlns="http://www.w3.org/2000/svg">
<title id="fig-soccorsi-letalita-t">Soccorsi più lenti, incidenti più letali: un legame solo fra Nord e Sud</title>
<desc id="fig-soccorsi-letalita-d">Abruzzo: 24,0 e 4,9; Basilicata: 26,0 e 6,9; Calabria: 28,0 e 5,6; Campania: 23,0 e 5,5; Emilia-Romagna: 15,0 e 3,3; Friuli-Venezia Giulia: 16,0 e 3,6; Lazio: 21,0 e 4,2; Liguria: 16,0 e 2,9; Lombardia: 17,0 e 3,4; Marche: 18,0 e 3,4; Molise: 23,0 e 6,2; Piemonte: 19,0 e 5,0; Puglia: 21,0 e 6,5; Sardegna: 25,0 e 5,1; Sicilia: 23,0 e 5,5; Toscana: 16,0 e 3,2; Umbria: 21,0 e 3,1; Valle d&#x27;Aosta: 24,0 e 2,8; Veneto: 18,0 e 4,8</desc>
<text class="fig__titolo" x="0" y="20">Soccorsi più lenti, incidenti più letali: un legame solo fra Nord e Sud</text>
<text class="fig__sotto" x="0" y="40">Tempo di arrivo dei mezzi di soccorso e letalità degli incidenti fuori dai centri abitati.</text>
<text class="fig__asse" x="56.0" y="370" text-anchor="middle">14,0</text>
<text class="fig__asse" x="50" y="358.0" text-anchor="end">2,5</text>
<text class="fig__asse" x="206.0" y="370" text-anchor="middle">17,7</text>
<text class="fig__asse" x="50" y="284.5" text-anchor="end">3,7</text>
<text class="fig__asse" x="356.0" y="370" text-anchor="middle">21,5</text>
<text class="fig__asse" x="50" y="211.0" text-anchor="end">4,8</text>
<text class="fig__asse" x="506.0" y="370" text-anchor="middle">25,3</text>
<text class="fig__asse" x="50" y="137.5" text-anchor="end">6,0</text>
<text class="fig__asse" x="656.0" y="370" text-anchor="middle">29,0</text>
<text class="fig__asse" x="50" y="64.0" text-anchor="end">7,2</text>
<text class="fig__asse-nome" x="656" y="388" text-anchor="end">minuti per l&#x27;arrivo dei soccorsi, 2022 →</text>
<text class="fig__asse-nome" x="56" y="52">↑ morti ogni 100 incidenti su strade extraurbane, 2021-2023</text>
<rect class="fig__pt fig__pt--mz" x="451.5" y="199.9" width="8" height="8"/>
<rect class="fig__pt fig__pt--mz is-on" x="531.0" y="76.3" width="8" height="8"/>
<rect class="fig__pt fig__pt--mz is-on" x="610.6" y="154.7" width="8" height="8"/>
<rect class="fig__pt fig__pt--mz" x="411.7" y="162.8" width="8" height="8"/>
<circle class="fig__pt fig__pt--cn is-on" cx="97.4" cy="305.5" r="4.5"/>
<circle class="fig__pt fig__pt--cn" cx="137.2" cy="284.2" r="4.5"/>
<circle class="fig__pt fig__pt--cn" cx="336.1" cy="245.3" r="4.5"/>
<circle class="fig__pt fig__pt--cn" cx="137.2" cy="326.8" r="4.5"/>
<circle class="fig__pt fig__pt--cn" cx="177.0" cy="298.0" r="4.5"/>
<circle class="fig__pt fig__pt--cn" cx="216.7" cy="297.3" r="4.5"/>
<rect class="fig__pt fig__pt--mz" x="411.7" y="115.2" width="8" height="8"/>
<circle class="fig__pt fig__pt--cn" cx="256.5" cy="196.3" r="4.5"/>
<rect class="fig__pt fig__pt--mz" x="332.1" y="102.0" width="8" height="8"/>
<rect class="fig__pt fig__pt--mz is-on" x="491.3" y="189.2" width="8" height="8"/>
<rect class="fig__pt fig__pt--mz" x="411.7" y="159.7" width="8" height="8"/>
<circle class="fig__pt fig__pt--cn" cx="137.2" cy="310.5" r="4.5"/>
<circle class="fig__pt fig__pt--cn" cx="336.1" cy="315.5" r="4.5"/>
<circle class="fig__pt fig__pt--cn" cx="455.5" cy="333.7" r="4.5"/>
<circle class="fig__pt fig__pt--cn" cx="216.7" cy="209.5" r="4.5"/>
<text class="fig__pt-nome is-on" x="542.0" y="84.3">Basilicata</text>
<text class="fig__pt-nome" x="343.1" y="110.0">Puglia</text>
<text class="fig__pt-nome" x="422.7" y="123.2">Molise</text>
<text class="fig__pt-nome is-on" x="607.6" y="162.7" text-anchor="end">Calabria</text>
<text class="fig__pt-nome" x="422.7" y="167.7">Sicilia</text>
<text class="fig__pt-nome" x="422.7" y="182.8">Campania</text>
<text class="fig__pt-nome is-on" x="502.3" y="197.2">Sardegna</text>
<text class="fig__pt-nome" x="263.5" y="200.3">Piemonte</text>
<text class="fig__pt-nome" x="462.5" y="219.9">Abruzzo</text>
<text class="fig__pt-nome" x="223.7" y="213.5">Veneto</text>
<text class="fig__pt-nome" x="343.1" y="249.3">Lazio</text>
<text class="fig__pt-nome" x="144.2" y="288.2">Friuli-Venezia Giulia</text>
<text class="fig__pt-nome" x="223.7" y="301.3">Marche</text>
<text class="fig__pt-nome" x="184.0" y="314.0">Lombardia</text>
<text class="fig__pt-nome is-on" x="104.4" y="333.5">Emilia-Romagna</text>
<text class="fig__pt-nome" x="144.2" y="350.5">Toscana</text>
<text class="fig__pt-nome" x="343.1" y="319.5">Umbria</text>
<text class="fig__pt-nome" x="144.2" y="366.8">Liguria</text>
<text class="fig__pt-nome" x="462.5" y="337.7">Valle d&#x27;Aosta</text>
<text class="fig__nota" x="0" y="414">Una regione per punto. Cerchi: Centro-Nord. Quadrati: Mezzogiorno.</text>
<text class="fig__fonte" x="0" y="434">Fonte: Ministero della Salute e Istat. Elaborazione Divario Italia.</text>
</svg>
