<svg class="fig" viewBox="0 0 680 440" role="img" aria-labelledby="fig-soccorsi-letalita-t fig-soccorsi-letalita-d" xmlns="http://www.w3.org/2000/svg">
<title id="fig-soccorsi-letalita-t">Soccorsi più lenti, incidenti più letali: un legame solo fra Nord e Sud</title>
<desc id="fig-soccorsi-letalita-d">Abruzzo: 24,0 e 4,9; Basilicata: 26,0 e 6,9; Calabria: 28,0 e 5,6; Campania: 23,0 e 5,5; Emilia-Romagna: 15,0 e 3,3; Friuli-Venezia Giulia: 16,0 e 3,6; Lazio: 21,0 e 4,2; Liguria: 16,0 e 2,9; Lombardia: 17,0 e 3,4; Marche: 18,0 e 3,4; Molise: 23,0 e 6,2; Piemonte: 19,0 e 5,0; Puglia: 21,0 e 6,5; Sardegna: 25,0 e 5,1; Sicilia: 23,0 e 5,5; Toscana: 16,0 e 3,2; Umbria: 21,0 e 3,1; Valle d&#x27;Aosta: 24,0 e 2,8; Veneto: 18,0 e 4,8</desc>
<text class="fig__title" x="0" y="20">Soccorsi più lenti, incidenti più letali: un legame solo fra Nord e Sud</text>
<text class="fig__subtitle" x="0" y="40">Tempo di arrivo dei mezzi di soccorso e letalità degli incidenti fuori dai centri abitati.</text>
<text class="fig__axis" x="56.0" y="370" text-anchor="middle">10</text>
<text class="fig__axis" x="206.0" y="370" text-anchor="middle">15</text>
<text class="fig__axis" x="356.0" y="370" text-anchor="middle">20</text>
<text class="fig__axis" x="506.0" y="370" text-anchor="middle">25</text>
<text class="fig__axis" x="656.0" y="370" text-anchor="middle">30</text>
<text class="fig__axis" x="50" y="358.0" text-anchor="end">2</text>
<text class="fig__axis" x="50" y="260.0" text-anchor="end">4</text>
<text class="fig__axis" x="50" y="162.0" text-anchor="end">6</text>
<text class="fig__axis" x="50" y="64.0" text-anchor="end">8</text>
<text class="fig__axis-name" x="656" y="388" text-anchor="end">minuti per l&#x27;arrivo dei soccorsi, 2022 →</text>
<text class="fig__axis-name" x="56" y="52">↑ morti ogni 100 incidenti su strade extraurbane, 2021-2023</text>
<rect class="fig__pt fig__pt--south" x="472.0" y="207.9" width="8" height="8"/>
<rect class="fig__pt fig__pt--south is-on" x="532.0" y="111.4" width="8" height="8"/>
<rect class="fig__pt fig__pt--south is-on" x="592.0" y="172.6" width="8" height="8"/>
<rect class="fig__pt fig__pt--south" x="442.0" y="179.0" width="8" height="8"/>
<circle class="fig__pt fig__pt--cn is-on" cx="206.0" cy="291.3" r="4.5"/>
<circle class="fig__pt fig__pt--cn" cx="236.0" cy="274.6" r="4.5"/>
<circle class="fig__pt fig__pt--cn" cx="386.0" cy="244.2" r="4.5"/>
<circle class="fig__pt fig__pt--cn" cx="236.0" cy="307.9" r="4.5"/>
<circle class="fig__pt fig__pt--cn" cx="266.0" cy="285.4" r="4.5"/>
<circle class="fig__pt fig__pt--cn" cx="296.0" cy="284.9" r="4.5"/>
<rect class="fig__pt fig__pt--south" x="442.0" y="141.8" width="8" height="8"/>
<circle class="fig__pt fig__pt--cn" cx="326.0" cy="206.0" r="4.5"/>
<rect class="fig__pt fig__pt--south" x="382.0" y="131.5" width="8" height="8"/>
<rect class="fig__pt fig__pt--south is-on" x="502.0" y="199.6" width="8" height="8"/>
<rect class="fig__pt fig__pt--south" x="442.0" y="176.5" width="8" height="8"/>
<circle class="fig__pt fig__pt--cn" cx="236.0" cy="295.2" r="4.5"/>
<circle class="fig__pt fig__pt--cn" cx="386.0" cy="299.1" r="4.5"/>
<circle class="fig__pt fig__pt--cn" cx="476.0" cy="313.3" r="4.5"/>
<circle class="fig__pt fig__pt--cn" cx="296.0" cy="216.3" r="4.5"/>
<text class="fig__pt-name is-on" x="543.0" y="119.4">Basilicata</text>
<text class="fig__pt-name" x="393.0" y="139.5">Puglia</text>
<text class="fig__pt-name" x="453.0" y="149.8">Molise</text>
<text class="fig__pt-name is-on" x="589.0" y="180.6" text-anchor="end">Calabria</text>
<text class="fig__pt-name" x="453.0" y="184.5">Sicilia</text>
<text class="fig__pt-name" x="453.0" y="199.0">Campania</text>
<text class="fig__pt-name is-on" x="513.0" y="207.6">Sardegna</text>
<text class="fig__pt-name" x="333.0" y="210.0">Piemonte</text>
<text class="fig__pt-name" x="483.0" y="227.9">Abruzzo</text>
<text class="fig__pt-name" x="303.0" y="232.3">Veneto</text>
<text class="fig__pt-name" x="393.0" y="248.2">Lazio</text>
<text class="fig__pt-name" x="243.0" y="278.6">Friuli-Venezia Giulia</text>
<text class="fig__pt-name" x="303.0" y="300.9">Marche</text>
<text class="fig__pt-name" x="273.0" y="313.4">Lombardia</text>
<text class="fig__pt-name is-on" x="213.0" y="295.3">Emilia-Romagna</text>
<text class="fig__pt-name" x="243.0" y="335.2">Toscana</text>
<text class="fig__pt-name" x="393.0" y="303.1">Umbria</text>
<text class="fig__pt-name" x="243.0" y="347.9">Liguria</text>
<text class="fig__pt-name" x="483.0" y="317.3">Valle d&#x27;Aosta</text>
<text class="fig__note" x="0" y="414">Una regione per punto. Cerchi: Centro-Nord. Quadrati: Mezzogiorno. In evidenza quelle di cui parla il testo.</text>
<text class="fig__source" x="0" y="434">Fonte: Ministero della Salute e Istat. Elaborazione Divario Italia.</text>
</svg>
