<svg class="fig" viewBox="0 0 680 440" role="img" aria-labelledby="fig-dispersione-dimissioni-t fig-dispersione-dimissioni-d" xmlns="http://www.w3.org/2000/svg">
<title id="fig-dispersione-dimissioni-t">Dove piu medici superano il tetto, la quota di dimissioni fuori regione e piu bassa</title>
<desc id="fig-dispersione-dimissioni-d">Abruzzo: 30,5 e 16,3; Basilicata: 29,3 e 29,7; Calabria: 37,2 e 21,8; Campania: 58,8 e 9,8; Emilia-Romagna: 57,6 e 5,7; Friuli-Venezia Giulia: 52,4 e 7,7; Lazio: 48,7 e 7,4; Liguria: 50,7 e 15,3; Lombardia: 74,0 e 5,1; Marche: 55,5 e 13,4; Molise: 21,6 e 32,6; Piemonte: 54,1 e 6,7; Puglia: 35,0 e 9,2; Sardegna: 60,6 e 7,1; Sicilia: 25,5 e 7,0; Toscana: 49,4 e 6,8; Trentino Alto Adige: 60,3 e 9,8; Umbria: 34,8 e 14,0; Valle d&#x27;Aosta: 61,1 e 18,6; Veneto: 68,7 e 6,4</desc>
<text class="fig__title" x="0" y="20">Dove piu medici superano il tetto, la quota di dimissioni fuori regione e piu bassa</text>
<text class="fig__subtitle" x="0" y="40">2023, percentuali. Relazione moderata: Spearman -0,50 su 20 regioni, -0,32 senza Lombardia e Molise.</text>
<text class="fig__axis" x="56.0" y="370" text-anchor="middle">0</text>
<text class="fig__axis" x="206.0" y="370" text-anchor="middle">20</text>
<text class="fig__axis" x="356.0" y="370" text-anchor="middle">40</text>
<text class="fig__axis" x="506.0" y="370" text-anchor="middle">60</text>
<text class="fig__axis" x="656.0" y="370" text-anchor="middle">80</text>
<text class="fig__axis" x="50" y="358.0" text-anchor="end">0</text>
<text class="fig__axis" x="50" y="260.0" text-anchor="end">10</text>
<text class="fig__axis" x="50" y="162.0" text-anchor="end">20</text>
<text class="fig__axis" x="50" y="64.0" text-anchor="end">30</text>
<text class="fig__axis-name" x="656" y="388" text-anchor="end">Quota di medici di famiglia con piu di 1500 assistiti (%) →</text>
<text class="fig__axis-name" x="56" y="52">↑ Quota di dimissioni fuori regione (%)</text>
<rect class="fig__pt fig__pt--south" x="280.8" y="190.3" width="8" height="8"/>
<rect class="fig__pt fig__pt--south" x="271.8" y="58.9" width="8" height="8"/>
<rect class="fig__pt fig__pt--south" x="331.0" y="136.4" width="8" height="8"/>
<rect class="fig__pt fig__pt--south" x="493.0" y="254.0" width="8" height="8"/>
<circle class="fig__pt fig__pt--cn" cx="488.0" cy="298.1" r="4.5"/>
<circle class="fig__pt fig__pt--cn" cx="449.0" cy="278.5" r="4.5"/>
<circle class="fig__pt fig__pt--cn" cx="421.2" cy="281.5" r="4.5"/>
<circle class="fig__pt fig__pt--cn" cx="436.2" cy="204.1" r="4.5"/>
<circle class="fig__pt fig__pt--cn is-on" cx="611.0" cy="304.0" r="4.5"/>
<circle class="fig__pt fig__pt--cn" cx="472.2" cy="222.7" r="4.5"/>
<rect class="fig__pt fig__pt--south is-on" x="214.0" y="30.5" width="8" height="8"/>
<circle class="fig__pt fig__pt--cn" cx="461.8" cy="288.3" r="4.5"/>
<rect class="fig__pt fig__pt--south" x="314.5" y="259.8" width="8" height="8"/>
<rect class="fig__pt fig__pt--south is-on" x="506.5" y="280.4" width="8" height="8"/>
<rect class="fig__pt fig__pt--south" x="243.2" y="281.4" width="8" height="8"/>
<circle class="fig__pt fig__pt--cn" cx="426.5" cy="287.4" r="4.5"/>
<circle class="fig__pt fig__pt--cn" cx="508.2" cy="258.0" r="4.5"/>
<circle class="fig__pt fig__pt--cn" cx="317.0" cy="216.8" r="4.5"/>
<circle class="fig__pt fig__pt--cn" cx="514.2" cy="171.7" r="4.5"/>
<circle class="fig__pt fig__pt--cn" cx="571.2" cy="291.3" r="4.5"/>
<text class="fig__pt-name is-on" x="225.0" y="38.5">Molise</text>
<text class="fig__pt-name" x="282.8" y="66.9">Basilicata</text>
<text class="fig__pt-name" x="342.0" y="144.4">Calabria</text>
<text class="fig__pt-name" x="521.2" y="175.7">Valle d&#x27;Aosta</text>
<text class="fig__pt-name" x="291.8" y="198.3">Abruzzo</text>
<text class="fig__pt-name" x="443.2" y="208.1">Liguria</text>
<text class="fig__pt-name" x="324.0" y="220.8">Umbria</text>
<text class="fig__pt-name" x="479.2" y="226.7">Marche</text>
<text class="fig__pt-name" x="504.0" y="262.0">Campania</text>
<text class="fig__pt-name" x="515.2" y="274.0">Trentino Alto Adige</text>
<text class="fig__pt-name" x="325.5" y="267.8">Puglia</text>
<text class="fig__pt-name" x="456.0" y="294.5">Friuli-Venezia Giulia</text>
<text class="fig__pt-name" x="428.2" y="309.5">Lazio</text>
<text class="fig__pt-name is-on" x="517.5" y="312.4">Sardegna</text>
<text class="fig__pt-name" x="254.2" y="289.4">Sicilia</text>
<text class="fig__pt-name" x="433.5" y="327.4">Toscana</text>
<text class="fig__pt-name" x="468.8" y="340.3">Piemonte</text>
<text class="fig__pt-name" x="564.2" y="331.3" text-anchor="end">Veneto</text>
<text class="fig__pt-name" x="495.0" y="362.1">Emilia-Romagna</text>
<text class="fig__pt-name is-on" x="604.0" y="344.0" text-anchor="end">Lombardia</text>
<text class="fig__note" x="0" y="414">Una regione per punto. Cerchi: Centro-Nord. Quadrati: Mezzogiorno. In evidenza quelle di cui parla il testo.</text>
<text class="fig__source" x="0" y="434">Fonte: Istat. Elaborazione Divario Italia.</text>
</svg>
